<mxfile host="app.diagrams.net" modified="2023-11-11T23:57:41.727Z" agent="Mozilla/5.0 (Windows NT 10.0; Win64; x64) AppleWebKit/537.36 (KHTML, like Gecko) Chrome/119.0.0.0 Safari/537.36" etag="TFtsHnLwQy5SrhdkmKGE" version="22.1.0" type="device">
  <diagram id="C5RBs43oDa-KdzZeNtuy" name="Page-1">
    <mxGraphModel dx="1050" dy="569" grid="1" gridSize="10" guides="1" tooltips="1" connect="1" arrows="1" fold="1" page="1" pageScale="1" pageWidth="827" pageHeight="1169" background="none" math="0" shadow="0">
      <root>
        <mxCell id="WIyWlLk6GJQsqaUBKTNV-0" />
        <mxCell id="WIyWlLk6GJQsqaUBKTNV-1" parent="WIyWlLk6GJQsqaUBKTNV-0" />
        <mxCell id="bCGV6SoVyEcWTAfrePe1-2" value="" style="edgeStyle=orthogonalEdgeStyle;rounded=0;orthogonalLoop=1;jettySize=auto;html=1;labelBackgroundColor=none;fontColor=default;strokeColor=#FFFFFF;" edge="1" parent="WIyWlLk6GJQsqaUBKTNV-1" source="bCGV6SoVyEcWTAfrePe1-0" target="bCGV6SoVyEcWTAfrePe1-1">
          <mxGeometry relative="1" as="geometry" />
        </mxCell>
        <mxCell id="bCGV6SoVyEcWTAfrePe1-0" value="&lt;pre&gt;&lt;b&gt;&lt;font color=&quot;#ff0000&quot; style=&quot;font-size: 18px;&quot;&gt;START&lt;/font&gt;&lt;/b&gt;&lt;/pre&gt;" style="strokeWidth=2;html=1;shape=mxgraph.flowchart.start_1;whiteSpace=wrap;labelBackgroundColor=none;rounded=0;" vertex="1" parent="WIyWlLk6GJQsqaUBKTNV-1">
          <mxGeometry x="350" y="40" width="100" height="60" as="geometry" />
        </mxCell>
        <mxCell id="bCGV6SoVyEcWTAfrePe1-4" value="" style="edgeStyle=orthogonalEdgeStyle;rounded=0;orthogonalLoop=1;jettySize=auto;html=1;labelBackgroundColor=none;fontColor=default;strokeColor=#FFFFFF;" edge="1" parent="WIyWlLk6GJQsqaUBKTNV-1" source="bCGV6SoVyEcWTAfrePe1-1" target="bCGV6SoVyEcWTAfrePe1-3">
          <mxGeometry relative="1" as="geometry" />
        </mxCell>
        <mxCell id="bCGV6SoVyEcWTAfrePe1-1" value="&lt;pre&gt;Scanning the arena&lt;/pre&gt;" style="rounded=1;whiteSpace=wrap;html=1;absoluteArcSize=1;arcSize=14;strokeWidth=2;labelBackgroundColor=none;" vertex="1" parent="WIyWlLk6GJQsqaUBKTNV-1">
          <mxGeometry x="335" y="150" width="130" height="40" as="geometry" />
        </mxCell>
        <mxCell id="bCGV6SoVyEcWTAfrePe1-18" style="edgeStyle=orthogonalEdgeStyle;rounded=0;orthogonalLoop=1;jettySize=auto;html=1;entryX=0.5;entryY=0;entryDx=0;entryDy=0;labelBackgroundColor=none;fontColor=default;strokeColor=#FFFFFF;" edge="1" parent="WIyWlLk6GJQsqaUBKTNV-1" source="bCGV6SoVyEcWTAfrePe1-3" target="bCGV6SoVyEcWTAfrePe1-12">
          <mxGeometry relative="1" as="geometry" />
        </mxCell>
        <mxCell id="bCGV6SoVyEcWTAfrePe1-3" value="&lt;pre&gt;Save the IDs of token&lt;/pre&gt;&lt;pre&gt; seen in the id_list&lt;/pre&gt;" style="rounded=1;whiteSpace=wrap;html=1;absoluteArcSize=1;arcSize=14;strokeWidth=2;labelBackgroundColor=none;gradientColor=none;" vertex="1" parent="WIyWlLk6GJQsqaUBKTNV-1">
          <mxGeometry x="320" y="240" width="160" height="50" as="geometry" />
        </mxCell>
        <mxCell id="bCGV6SoVyEcWTAfrePe1-5" value="&lt;pre&gt;&lt;font color=&quot;#000000&quot;&gt;id_list&lt;/font&gt;&lt;/pre&gt;" style="swimlane;fontStyle=0;childLayout=stackLayout;horizontal=1;startSize=26;horizontalStack=0;resizeParent=1;resizeParentMax=0;resizeLast=0;collapsible=1;marginBottom=0;html=1;labelBackgroundColor=none;rounded=0;fontColor=#FFFFFF;strokeColor=#FFFFFF;" vertex="1" parent="WIyWlLk6GJQsqaUBKTNV-1">
          <mxGeometry x="540" y="213" width="140" height="104" as="geometry" />
        </mxCell>
        <mxCell id="bCGV6SoVyEcWTAfrePe1-6" value="&lt;font face=&quot;Courier New&quot;&gt;Token ID: ...&lt;/font&gt;" style="text;strokeColor=#FFFFFF;align=left;verticalAlign=top;spacingLeft=4;spacingRight=4;overflow=hidden;rotatable=0;points=[[0,0.5],[1,0.5]];portConstraint=eastwest;whiteSpace=wrap;html=1;labelBackgroundColor=none;rounded=0;fontColor=#FFFFFF;labelBorderColor=none;" vertex="1" parent="bCGV6SoVyEcWTAfrePe1-5">
          <mxGeometry y="26" width="140" height="26" as="geometry" />
        </mxCell>
        <mxCell id="bCGV6SoVyEcWTAfrePe1-7" value="&lt;font face=&quot;Courier New&quot;&gt;Token ID: ...&lt;/font&gt;" style="text;strokeColor=#FFFFFF;align=left;verticalAlign=top;spacingLeft=4;spacingRight=4;overflow=hidden;rotatable=0;points=[[0,0.5],[1,0.5]];portConstraint=eastwest;whiteSpace=wrap;html=1;labelBackgroundColor=none;rounded=0;fontColor=#FFFFFF;labelBorderColor=none;" vertex="1" parent="bCGV6SoVyEcWTAfrePe1-5">
          <mxGeometry y="52" width="140" height="26" as="geometry" />
        </mxCell>
        <mxCell id="bCGV6SoVyEcWTAfrePe1-8" value="&lt;font face=&quot;Courier New&quot;&gt;Token ID: ...&lt;/font&gt;" style="text;strokeColor=#FFFFFF;align=left;verticalAlign=top;spacingLeft=4;spacingRight=4;overflow=hidden;rotatable=0;points=[[0,0.5],[1,0.5]];portConstraint=eastwest;html=1;labelBackgroundColor=none;rounded=0;fontColor=#FFFFFF;labelBorderColor=none;" vertex="1" parent="bCGV6SoVyEcWTAfrePe1-5">
          <mxGeometry y="78" width="140" height="26" as="geometry" />
        </mxCell>
        <mxCell id="bCGV6SoVyEcWTAfrePe1-10" value="" style="endArrow=none;dashed=1;html=1;rounded=0;entryX=0.003;entryY=-0.004;entryDx=0;entryDy=0;entryPerimeter=0;exitX=1;exitY=0.5;exitDx=0;exitDy=0;labelBackgroundColor=none;fontColor=default;strokeColor=#FFFFFF;" edge="1" parent="WIyWlLk6GJQsqaUBKTNV-1" source="bCGV6SoVyEcWTAfrePe1-3" target="bCGV6SoVyEcWTAfrePe1-7">
          <mxGeometry width="50" height="50" relative="1" as="geometry">
            <mxPoint x="390" y="330" as="sourcePoint" />
            <mxPoint x="440" y="280" as="targetPoint" />
          </mxGeometry>
        </mxCell>
        <mxCell id="bCGV6SoVyEcWTAfrePe1-11" value="&lt;pre&gt;&lt;font color=&quot;#ffffff&quot;&gt;list of all token IDs seen&lt;/font&gt;&lt;/pre&gt;" style="text;strokeColor=none;fillColor=none;align=center;verticalAlign=middle;rounded=0;strokeWidth=1;spacing=0;spacingBottom=0;whiteSpace=wrap;html=1;labelBackgroundColor=none;" vertex="1" parent="WIyWlLk6GJQsqaUBKTNV-1">
          <mxGeometry x="540" y="190" width="140" height="23" as="geometry" />
        </mxCell>
        <mxCell id="bCGV6SoVyEcWTAfrePe1-21" value="" style="edgeStyle=orthogonalEdgeStyle;rounded=0;orthogonalLoop=1;jettySize=auto;html=1;labelBackgroundColor=none;fontColor=default;strokeColor=#FFFFFF;" edge="1" parent="WIyWlLk6GJQsqaUBKTNV-1" source="bCGV6SoVyEcWTAfrePe1-12" target="bCGV6SoVyEcWTAfrePe1-20">
          <mxGeometry relative="1" as="geometry" />
        </mxCell>
        <mxCell id="bCGV6SoVyEcWTAfrePe1-12" value="&lt;pre&gt;Set the first token seen as&lt;/pre&gt;&lt;pre&gt;reference token and remove&lt;/pre&gt;&lt;pre&gt;its ID from id_list&lt;/pre&gt;" style="rounded=1;whiteSpace=wrap;html=1;absoluteArcSize=1;arcSize=14;strokeWidth=2;labelBackgroundColor=none;" vertex="1" parent="WIyWlLk6GJQsqaUBKTNV-1">
          <mxGeometry x="300" y="390" width="200" height="90" as="geometry" />
        </mxCell>
        <mxCell id="bCGV6SoVyEcWTAfrePe1-13" value="&lt;pre&gt;id_list&lt;/pre&gt;" style="swimlane;fontStyle=0;childLayout=stackLayout;horizontal=1;startSize=26;horizontalStack=0;resizeParent=1;resizeParentMax=0;resizeLast=0;collapsible=1;marginBottom=0;html=1;labelBackgroundColor=none;rounded=0;strokeColor=#FFFFFF;" vertex="1" parent="WIyWlLk6GJQsqaUBKTNV-1">
          <mxGeometry x="540" y="383" width="140" height="104" as="geometry" />
        </mxCell>
        <mxCell id="bCGV6SoVyEcWTAfrePe1-14" value="&lt;font color=&quot;#ffffff&quot; face=&quot;Courier New&quot;&gt;Token ID: ...&lt;/font&gt;" style="text;strokeColor=#FFFFFF;align=left;verticalAlign=top;spacingLeft=4;spacingRight=4;overflow=hidden;rotatable=0;points=[[0,0.5],[1,0.5]];portConstraint=eastwest;whiteSpace=wrap;html=1;labelBackgroundColor=none;rounded=0;fillColor=none;" vertex="1" parent="bCGV6SoVyEcWTAfrePe1-13">
          <mxGeometry y="26" width="140" height="26" as="geometry" />
        </mxCell>
        <mxCell id="bCGV6SoVyEcWTAfrePe1-15" value="&lt;font color=&quot;#ffffff&quot; face=&quot;Courier New&quot;&gt;Token ID: ...&lt;/font&gt;" style="text;strokeColor=#FFFFFF;align=left;verticalAlign=top;spacingLeft=4;spacingRight=4;overflow=hidden;rotatable=0;points=[[0,0.5],[1,0.5]];portConstraint=eastwest;whiteSpace=wrap;html=1;labelBackgroundColor=none;rounded=0;fillColor=none;" vertex="1" parent="bCGV6SoVyEcWTAfrePe1-13">
          <mxGeometry y="52" width="140" height="26" as="geometry" />
        </mxCell>
        <mxCell id="bCGV6SoVyEcWTAfrePe1-16" value="&lt;font color=&quot;#ffffff&quot; face=&quot;Courier New&quot;&gt;Token ID: ...&lt;/font&gt;" style="text;strokeColor=#FFFFFF;align=left;verticalAlign=top;spacingLeft=4;spacingRight=4;overflow=hidden;rotatable=0;points=[[0,0.5],[1,0.5]];portConstraint=eastwest;whiteSpace=wrap;html=1;labelBackgroundColor=none;rounded=0;fillColor=none;" vertex="1" parent="bCGV6SoVyEcWTAfrePe1-13">
          <mxGeometry y="78" width="140" height="26" as="geometry" />
        </mxCell>
        <mxCell id="bCGV6SoVyEcWTAfrePe1-17" value="&lt;pre&gt;&lt;font color=&quot;#ffffff&quot;&gt;list of unpaired token IDs&lt;/font&gt;&lt;/pre&gt;" style="text;strokeColor=none;fillColor=none;align=center;verticalAlign=middle;rounded=0;strokeWidth=1;spacing=0;spacingBottom=0;whiteSpace=wrap;html=1;labelBackgroundColor=none;" vertex="1" parent="WIyWlLk6GJQsqaUBKTNV-1">
          <mxGeometry x="540" y="360" width="140" height="23" as="geometry" />
        </mxCell>
        <mxCell id="bCGV6SoVyEcWTAfrePe1-19" value="" style="endArrow=none;dashed=1;html=1;rounded=0;entryX=0.003;entryY=-0.004;entryDx=0;entryDy=0;entryPerimeter=0;labelBackgroundColor=none;fontColor=default;strokeColor=#FFFFFF;" edge="1" parent="WIyWlLk6GJQsqaUBKTNV-1">
          <mxGeometry width="50" height="50" relative="1" as="geometry">
            <mxPoint x="500" y="435" as="sourcePoint" />
            <mxPoint x="540" y="434.58000000000004" as="targetPoint" />
          </mxGeometry>
        </mxCell>
        <mxCell id="bCGV6SoVyEcWTAfrePe1-23" value="" style="edgeStyle=orthogonalEdgeStyle;rounded=0;orthogonalLoop=1;jettySize=auto;html=1;labelBackgroundColor=none;fontColor=default;strokeColor=#FFFFFF;" edge="1" parent="WIyWlLk6GJQsqaUBKTNV-1" source="bCGV6SoVyEcWTAfrePe1-20" target="bCGV6SoVyEcWTAfrePe1-22">
          <mxGeometry relative="1" as="geometry" />
        </mxCell>
        <mxCell id="bCGV6SoVyEcWTAfrePe1-26" value="" style="edgeStyle=orthogonalEdgeStyle;rounded=0;orthogonalLoop=1;jettySize=auto;html=1;labelBackgroundColor=none;fontColor=default;strokeColor=#FFFFFF;" edge="1" parent="WIyWlLk6GJQsqaUBKTNV-1" source="bCGV6SoVyEcWTAfrePe1-20" target="bCGV6SoVyEcWTAfrePe1-25">
          <mxGeometry relative="1" as="geometry" />
        </mxCell>
        <mxCell id="bCGV6SoVyEcWTAfrePe1-20" value="&lt;pre&gt;Is the &lt;/pre&gt;&lt;pre&gt;id_list&lt;/pre&gt;&lt;pre&gt;empty?&lt;/pre&gt;" style="strokeWidth=2;html=1;shape=mxgraph.flowchart.decision;whiteSpace=wrap;labelBackgroundColor=none;rounded=0;" vertex="1" parent="WIyWlLk6GJQsqaUBKTNV-1">
          <mxGeometry x="335" y="550" width="130" height="130" as="geometry" />
        </mxCell>
        <mxCell id="bCGV6SoVyEcWTAfrePe1-22" value="&lt;pre style=&quot;border-color: var(--border-color);&quot;&gt;&lt;b&gt;&lt;font color=&quot;#ff0000&quot; style=&quot;font-size: 18px;&quot;&gt;FINISH&lt;/font&gt;&lt;/b&gt;&lt;/pre&gt;" style="strokeWidth=2;html=1;shape=mxgraph.flowchart.start_1;whiteSpace=wrap;labelBackgroundColor=none;rounded=0;" vertex="1" parent="WIyWlLk6GJQsqaUBKTNV-1">
          <mxGeometry x="560" y="585" width="100" height="60" as="geometry" />
        </mxCell>
        <mxCell id="bCGV6SoVyEcWTAfrePe1-24" value="&lt;pre&gt;&lt;font style=&quot;font-size: 14px;&quot; color=&quot;#33ff33&quot;&gt;True&lt;/font&gt;&lt;/pre&gt;" style="text;html=1;strokeColor=none;fillColor=none;align=center;verticalAlign=middle;whiteSpace=wrap;rounded=0;labelBackgroundColor=none;" vertex="1" parent="WIyWlLk6GJQsqaUBKTNV-1">
          <mxGeometry x="480" y="585" width="60" height="30" as="geometry" />
        </mxCell>
        <mxCell id="bCGV6SoVyEcWTAfrePe1-28" value="" style="edgeStyle=orthogonalEdgeStyle;rounded=0;orthogonalLoop=1;jettySize=auto;html=1;labelBackgroundColor=none;fontColor=default;strokeColor=#FFFFFF;" edge="1" parent="WIyWlLk6GJQsqaUBKTNV-1" source="bCGV6SoVyEcWTAfrePe1-25" target="bCGV6SoVyEcWTAfrePe1-27">
          <mxGeometry relative="1" as="geometry" />
        </mxCell>
        <mxCell id="bCGV6SoVyEcWTAfrePe1-25" value="&lt;pre&gt;Find unpaired token&lt;/pre&gt;" style="rounded=1;whiteSpace=wrap;html=1;absoluteArcSize=1;arcSize=14;strokeWidth=2;labelBackgroundColor=none;" vertex="1" parent="WIyWlLk6GJQsqaUBKTNV-1">
          <mxGeometry x="331.25" y="730" width="137.5" height="40" as="geometry" />
        </mxCell>
        <mxCell id="bCGV6SoVyEcWTAfrePe1-30" value="" style="edgeStyle=orthogonalEdgeStyle;rounded=0;orthogonalLoop=1;jettySize=auto;html=1;labelBackgroundColor=none;fontColor=default;strokeColor=#FFFFFF;" edge="1" parent="WIyWlLk6GJQsqaUBKTNV-1" source="bCGV6SoVyEcWTAfrePe1-27" target="bCGV6SoVyEcWTAfrePe1-29">
          <mxGeometry relative="1" as="geometry" />
        </mxCell>
        <mxCell id="bCGV6SoVyEcWTAfrePe1-27" value="&lt;pre&gt;Go to grab it&lt;/pre&gt;" style="rounded=1;whiteSpace=wrap;html=1;absoluteArcSize=1;arcSize=14;strokeWidth=2;labelBackgroundColor=none;" vertex="1" parent="WIyWlLk6GJQsqaUBKTNV-1">
          <mxGeometry x="350" y="810" width="100" height="40" as="geometry" />
        </mxCell>
        <mxCell id="bCGV6SoVyEcWTAfrePe1-32" value="" style="edgeStyle=orthogonalEdgeStyle;rounded=0;orthogonalLoop=1;jettySize=auto;html=1;labelBackgroundColor=none;fontColor=default;strokeColor=#FFFFFF;" edge="1" parent="WIyWlLk6GJQsqaUBKTNV-1" source="bCGV6SoVyEcWTAfrePe1-29" target="bCGV6SoVyEcWTAfrePe1-31">
          <mxGeometry relative="1" as="geometry" />
        </mxCell>
        <mxCell id="bCGV6SoVyEcWTAfrePe1-29" value="&lt;pre&gt;Find reference token&lt;/pre&gt;" style="rounded=1;whiteSpace=wrap;html=1;absoluteArcSize=1;arcSize=14;strokeWidth=2;labelBackgroundColor=none;" vertex="1" parent="WIyWlLk6GJQsqaUBKTNV-1">
          <mxGeometry x="322.5" y="890" width="155" height="40" as="geometry" />
        </mxCell>
        <mxCell id="bCGV6SoVyEcWTAfrePe1-31" value="&lt;pre&gt;Go to release the unpaired token&lt;br&gt;near to reference token and&lt;br&gt;update the id_list&lt;/pre&gt;" style="rounded=1;whiteSpace=wrap;html=1;absoluteArcSize=1;arcSize=14;strokeWidth=2;labelBackgroundColor=none;" vertex="1" parent="WIyWlLk6GJQsqaUBKTNV-1">
          <mxGeometry x="290" y="980" width="220" height="70" as="geometry" />
        </mxCell>
        <mxCell id="bCGV6SoVyEcWTAfrePe1-33" style="edgeStyle=orthogonalEdgeStyle;rounded=0;orthogonalLoop=1;jettySize=auto;html=1;exitX=0;exitY=0.5;exitDx=0;exitDy=0;entryX=0;entryY=0.5;entryDx=0;entryDy=0;entryPerimeter=0;labelBackgroundColor=none;fontColor=default;strokeColor=#FFFFFF;" edge="1" parent="WIyWlLk6GJQsqaUBKTNV-1" source="bCGV6SoVyEcWTAfrePe1-31" target="bCGV6SoVyEcWTAfrePe1-20">
          <mxGeometry relative="1" as="geometry" />
        </mxCell>
        <mxCell id="bCGV6SoVyEcWTAfrePe1-34" value="&lt;pre&gt;&lt;span style=&quot;font-size: 14px;&quot;&gt;&lt;font color=&quot;#ff0000&quot;&gt;False&lt;/font&gt;&lt;/span&gt;&lt;/pre&gt;" style="text;html=1;align=center;verticalAlign=middle;whiteSpace=wrap;rounded=0;fillColor=none;labelBackgroundColor=none;" vertex="1" parent="WIyWlLk6GJQsqaUBKTNV-1">
          <mxGeometry x="400" y="680" width="60" height="30" as="geometry" />
        </mxCell>
      </root>
    </mxGraphModel>
  </diagram>
</mxfile>
